<?xml version="1.0" encoding="utf-8"?>
<!-- Generator: Adobe Illustrator 24.1.3, SVG Export Plug-In . SVG Version: 6.00 Build 0)  -->
<svg version="1.1" id="Layer_1" xmlns="http://www.w3.org/2000/svg" xmlns:xlink="http://www.w3.org/1999/xlink" x="0px" y="0px"
	 viewBox="0 0 135 40.29" style="enable-background:new 0 0 135 40.29;" xml:space="preserve">
<style type="text/css">
	.st0{fill:#A6A6A6;}
	.st1{fill:#FFFFFF;}
</style>
<g id="background">
	<g>
		<path d="M130,40H5c-2.75,0-5-2.25-5-5V5c0-2.75,2.25-5,5-5h125c2.75,0,5,2.25,5,5v30C135,37.75,132.75,40,130,40z"/>
	</g>
	<g>
		<g>
			<path class="st0" d="M130,0.8c2.32,0,4.2,1.88,4.2,4.2v30c0,2.32-1.88,4.2-4.2,4.2H5c-2.32,0-4.2-1.88-4.2-4.2V5
				c0-2.32,1.88-4.2,4.2-4.2L130,0.8 M130,0H5C2.25,0,0,2.25,0,5v30c0,2.75,2.25,5,5,5h125c2.75,0,5-2.25,5-5V5
				C135,2.25,132.75,0,130,0L130,0z"/>
		</g>
	</g>
</g>
<g id="US">
	<g>
		<g>
			<g id="XMLID_3_">
				<g id="XMLID_4_">
					<g id="XMLID_5_">
						<path id="XMLID_7_" class="st1" d="M32.44,20.45c-0.03-2.75,2.25-4.09,2.36-4.15c-1.29-1.88-3.29-2.14-3.99-2.16
							c-1.68-0.18-3.31,1-4.16,1c-0.87,0-2.19-0.99-3.61-0.96c-1.83,0.03-3.54,1.09-4.47,2.73c-1.93,3.35-0.49,8.27,1.36,10.98
							c0.93,1.33,2.01,2.81,3.43,2.75c1.39-0.06,1.91-0.88,3.58-0.88c1.66,0,2.14,0.88,3.59,0.85c1.49-0.02,2.43-1.33,3.32-2.67
							c1.07-1.52,1.5-3.02,1.52-3.09C35.32,24.83,32.47,23.74,32.44,20.45z"/>
						<path id="XMLID_6_" class="st1" d="M29.71,12.36c0.75-0.93,1.26-2.2,1.11-3.49c-1.08,0.05-2.43,0.75-3.21,1.66
							c-0.69,0.8-1.3,2.12-1.14,3.36C27.68,13.98,28.93,13.27,29.71,12.36z"/>
					</g>
				</g>
				<g>
					<path class="st1" d="M49.97,27.28h-4.73l-1.14,3.36h-2l4.48-12.42h2.08l4.48,12.42H51.1L49.97,27.28z M45.73,25.74h3.75
						l-1.85-5.45h-0.05L45.73,25.74z"/>
					<path class="st1" d="M62.83,26.11c0,2.81-1.51,4.62-3.78,4.62c-1.29,0-2.31-0.58-2.85-1.58h-0.04v4.48H54.3V21.59h1.8v1.51
						h0.03c0.52-0.97,1.62-1.6,2.88-1.6C61.31,21.49,62.83,23.31,62.83,26.11z M60.92,26.11c0-1.83-0.95-3.04-2.39-3.04
						c-1.42,0-2.38,1.23-2.38,3.04c0,1.82,0.96,3.05,2.38,3.05C59.97,29.16,60.92,27.96,60.92,26.11z"/>
					<path class="st1" d="M72.79,26.11c0,2.81-1.51,4.62-3.78,4.62c-1.29,0-2.31-0.58-2.85-1.58h-0.04v4.48h-1.86V21.59h1.8v1.51
						h0.03c0.52-0.97,1.62-1.6,2.88-1.6C71.28,21.49,72.79,23.31,72.79,26.11z M70.88,26.11c0-1.83-0.95-3.04-2.39-3.04
						c-1.42,0-2.38,1.23-2.38,3.04c0,1.82,0.96,3.05,2.38,3.05C69.94,29.16,70.88,27.96,70.88,26.11z"/>
					<path class="st1" d="M79.38,27.18c0.14,1.23,1.33,2.04,2.97,2.04c1.57,0,2.69-0.81,2.69-1.92c0-0.96-0.68-1.54-2.29-1.94
						l-1.61-0.39c-2.28-0.55-3.34-1.62-3.34-3.35c0-2.14,1.87-3.61,4.52-3.61c2.62,0,4.42,1.47,4.48,3.61h-1.88
						c-0.11-1.24-1.14-1.99-2.63-1.99s-2.52,0.76-2.52,1.86c0,0.88,0.65,1.39,2.25,1.79l1.37,0.34c2.55,0.6,3.61,1.63,3.61,3.44
						c0,2.32-1.85,3.78-4.79,3.78c-2.75,0-4.61-1.42-4.73-3.67L79.38,27.18L79.38,27.18z"/>
					<path class="st1" d="M91.01,19.44v2.14h1.72v1.47h-1.72v4.99c0,0.78,0.34,1.14,1.1,1.14c0.19,0,0.49-0.03,0.61-0.04v1.46
						c-0.21,0.05-0.62,0.09-1.03,0.09c-1.83,0-2.55-0.69-2.55-2.44v-5.19h-1.32v-1.47h1.32v-2.14L91.01,19.44L91.01,19.44z"/>
					<path class="st1" d="M93.73,26.11c0-2.85,1.68-4.64,4.29-4.64c2.62,0,4.29,1.79,4.29,4.64c0,2.86-1.66,4.64-4.29,4.64
						C95.39,30.75,93.73,28.97,93.73,26.11z M100.43,26.11c0-1.95-0.9-3.11-2.4-3.11s-2.4,1.16-2.4,3.11c0,1.96,0.89,3.11,2.4,3.11
						S100.43,28.08,100.43,26.11z"/>
					<path class="st1" d="M103.85,21.59h1.77v1.54h0.04c0.28-1.02,1.11-1.64,2.18-1.64c0.27,0,0.49,0.04,0.64,0.07v1.74
						c-0.15-0.06-0.47-0.11-0.83-0.11c-1.2,0-1.94,0.81-1.94,2.08v5.37h-1.86C103.85,30.64,103.85,21.59,103.85,21.59z"/>
					<path class="st1" d="M117.05,27.98c-0.25,1.64-1.85,2.77-3.9,2.77c-2.63,0-4.27-1.76-4.27-4.6s1.64-4.68,4.19-4.68
						c2.5,0,4.08,1.72,4.08,4.47v0.64h-6.39v0.11c0,1.55,0.97,2.56,2.44,2.56c1.03,0,1.84-0.49,2.09-1.27
						C115.29,27.98,117.05,27.98,117.05,27.98z M110.77,25.28h4.53c-0.04-1.39-0.93-2.3-2.22-2.3
						C111.79,22.98,110.86,23.91,110.77,25.28z"/>
				</g>
			</g>
		</g>
		<g id="XMLID_2_">
			<g>
				<path class="st1" d="M45.49,8.88c1.77,0,2.81,1.09,2.81,2.96c0,1.91-1.03,3-2.81,3h-2.16V8.88H45.49z M44.27,14h1.12
					c1.25,0,1.97-0.78,1.97-2.15c0-1.35-0.73-2.13-1.97-2.13h-1.12V14z"/>
				<path class="st1" d="M49.35,12.59c0-1.45,0.81-2.34,2.12-2.34c1.31,0,2.12,0.88,2.12,2.34s-0.81,2.34-2.12,2.34
					S49.35,14.05,49.35,12.59z M52.68,12.59c0-0.98-0.44-1.55-1.21-1.55s-1.21,0.57-1.21,1.55s0.43,1.55,1.21,1.55
					C52.24,14.14,52.68,13.57,52.68,12.59z"/>
				<path class="st1" d="M59.24,14.84h-0.92l-0.93-3.32h-0.07l-0.93,3.32h-0.91l-1.24-4.5h0.9l0.81,3.44h0.07l0.93-3.44h0.85
					l0.93,3.44h0.07l0.8-3.44h0.89L59.24,14.84z"/>
				<path class="st1" d="M61.52,10.34h0.86v0.72h0.07c0.22-0.5,0.67-0.8,1.34-0.8c1,0,1.56,0.6,1.56,1.67v2.92h-0.89v-2.69
					c0-0.72-0.31-1.08-0.97-1.08s-1.08,0.44-1.08,1.14v2.63h-0.89C61.52,14.85,61.52,10.34,61.52,10.34z"/>
				<path class="st1" d="M66.76,8.58h0.89v6.26h-0.89V8.58z"/>
				<path class="st1" d="M68.89,12.59c0-1.45,0.81-2.34,2.12-2.34c1.31,0,2.12,0.88,2.12,2.34s-0.81,2.34-2.12,2.34
					C69.69,14.93,68.89,14.05,68.89,12.59z M72.22,12.59c0-0.98-0.44-1.55-1.21-1.55s-1.21,0.57-1.21,1.55s0.43,1.55,1.21,1.55
					C71.78,14.14,72.22,13.57,72.22,12.59z"/>
				<path class="st1" d="M74.07,13.57c0-0.81,0.6-1.28,1.67-1.34l1.22-0.07v-0.39c0-0.48-0.31-0.74-0.92-0.74
					c-0.5,0-0.84,0.18-0.94,0.5h-0.86c0.09-0.77,0.82-1.27,1.84-1.27c1.13,0,1.77,0.56,1.77,1.51v3.08h-0.86v-0.63h-0.07
					c-0.27,0.45-0.76,0.71-1.35,0.71C74.7,14.92,74.07,14.39,74.07,13.57z M76.96,13.18V12.8l-1.1,0.07
					c-0.62,0.04-0.9,0.25-0.9,0.65c0,0.41,0.35,0.64,0.83,0.64C76.47,14.17,76.96,13.74,76.96,13.18z"/>
				<path class="st1" d="M79.02,12.59c0-1.42,0.73-2.32,1.87-2.32c0.62,0,1.14,0.29,1.38,0.79h0.07V8.58h0.89v6.26h-0.85v-0.71H82.3
					c-0.27,0.49-0.79,0.79-1.41,0.79C79.74,14.92,79.02,14.02,79.02,12.59z M79.93,12.59c0,0.96,0.45,1.53,1.2,1.53
					s1.21-0.58,1.21-1.53c0-0.94-0.47-1.53-1.21-1.53S79.93,11.64,79.93,12.59z"/>
				<path class="st1" d="M86.9,12.59c0-1.45,0.81-2.34,2.12-2.34c1.31,0,2.12,0.88,2.12,2.34s-0.81,2.34-2.12,2.34
					C87.7,14.93,86.9,14.05,86.9,12.59z M90.23,12.59c0-0.98-0.44-1.55-1.21-1.55s-1.21,0.57-1.21,1.55s0.43,1.55,1.21,1.55
					C89.79,14.14,90.23,13.57,90.23,12.59z"/>
				<path class="st1" d="M92.34,10.34h0.86v0.72h0.07c0.22-0.5,0.67-0.8,1.34-0.8c1,0,1.56,0.6,1.56,1.67v2.92h-0.89v-2.69
					c0-0.72-0.31-1.08-0.97-1.08s-1.08,0.44-1.08,1.14v2.63h-0.89C92.34,14.85,92.34,10.34,92.34,10.34z"/>
				<path class="st1" d="M101.18,9.22v1.14h0.98v0.75h-0.98v2.32c0,0.47,0.19,0.68,0.64,0.68c0.14,0,0.21-0.01,0.34-0.02v0.74
					c-0.14,0.02-0.31,0.05-0.48,0.05c-0.99,0-1.38-0.35-1.38-1.22v-2.54h-0.71v-0.75h0.71V9.22H101.18z"/>
				<path class="st1" d="M103.37,8.58h0.88v2.48h0.07c0.22-0.5,0.69-0.81,1.37-0.81c0.96,0,1.55,0.61,1.55,1.68v2.91h-0.89v-2.69
					c0-0.72-0.33-1.08-0.96-1.08c-0.73,0-1.13,0.46-1.13,1.14v2.63h-0.89C103.37,14.84,103.37,8.58,103.37,8.58z"/>
				<path class="st1" d="M112.43,13.63c-0.2,0.81-0.92,1.3-1.95,1.3c-1.29,0-2.08-0.88-2.08-2.32s0.81-2.35,2.08-2.35
					c1.25,0,2.01,0.86,2.01,2.27v0.31h-3.18v0.05c0.03,0.79,0.49,1.29,1.2,1.29c0.54,0,0.91-0.19,1.07-0.55
					C111.58,13.63,112.43,13.63,112.43,13.63z M109.3,12.18h2.27c-0.02-0.71-0.45-1.17-1.11-1.17
					C109.81,11.01,109.35,11.47,109.3,12.18z"/>
			</g>
		</g>
	</g>
</g>
</svg>
